HIERARCHY
ROOT hip
{
  OFFSET 0 0 0
  CHANNELS 6 Xposition Yposition Zposition Zrotation Yrotation Xrotation
  JOINT abdomen
  {
    OFFSET 0 20.6881 -0.73152
    CHANNELS 3 Zrotation Xrotation Yrotation
    JOINT chest
    {
      OFFSET 0 11.7043 -0.48768
      CHANNELS 3 Zrotation Xrotation Yrotation
      JOINT neck
      {
        OFFSET 0 22.1894 -2.19456
        CHANNELS 3 Zrotation Xrotation Yrotation
        JOINT head
        {
          OFFSET -0.24384 7.07133 1.2192
          CHANNELS 3 Zrotation Xrotation Yrotation
          JOINT leftEye
          {
            OFFSET 4.14528 8.04674 8.04672
            CHANNELS 3 Zrotation Xrotation Yrotation
            End Site
            {
              OFFSET 1 0 0
            }
          }
          JOINT rightEye
          {
            OFFSET -3.6576 8.04674 8.04672
            CHANNELS 3 Zrotation Xrotation Yrotation
            End Site
            {
              OFFSET 1 0 0
            }
          }
        }
      }
      JOINT rCollar
      {
        OFFSET -2.68224 19.2634 -4.8768
        CHANNELS 3 Zrotation Xrotation Yrotation
        JOINT rShldr
        {
          OFFSET -8.77824 -1.95073 1.46304
          CHANNELS 3 Zrotation Xrotation Yrotation
          JOINT rForeArm
          {
            OFFSET -28.1742 -1.7115 0.48768
            CHANNELS 3 Zrotation Xrotation Yrotation
            JOINT rHand
            {
              OFFSET -22.5879 0.773209 7.07136
              CHANNELS 3 Zrotation Xrotation Yrotation
              JOINT rThumb1
              {
                OFFSET -1.2192 -0.487915 3.41376
                CHANNELS 3 Zrotation Xrotation Yrotation
                JOINT rThumb2
                {
                  OFFSET -3.37035 -0.52449 3.41376
                  CHANNELS 3 Zrotation Xrotation Yrotation
                  End Site
                  {
                    OFFSET -1.78271 -1.18214 1.43049
                  }
                }
              }
              JOINT rIndex1
              {
                OFFSET -7.75947 0.938293 5.60832
                CHANNELS 3 Zrotation Xrotation Yrotation
                JOINT rIndex2
                {
                  OFFSET -2.54057 -0.884171 1.56538
                  CHANNELS 3 Zrotation Xrotation Yrotation
                  End Site
                  {
                    OFFSET -1.62519 -0.234802 1.16502
                  }
                }
              }
              JOINT rMid1
              {
                OFFSET -8.24714 1.18213 3.41376
                CHANNELS 3 Zrotation Xrotation Yrotation
                JOINT rMid2
                {
                  OFFSET -3.10165 -0.590103 1.0647
                  CHANNELS 3 Zrotation Xrotation Yrotation
                  End Site
                  {
                    OFFSET -2.48547 -0.328903 0.83742
                  }
                }
              }
              JOINT rRing1
              {
                OFFSET -8.82822 0.546677 1.51678
                CHANNELS 3 Zrotation Xrotation Yrotation
                JOINT rRing2
                {
                  OFFSET -2.60934 -0.819778 -0.0198488
                  CHANNELS 3 Zrotation Xrotation Yrotation
                  End Site
                  {
                    OFFSET -2.33842 -0.294052 0.168128
                  }
                }
              }
              JOINT rPinky1
              {
                OFFSET -8.27202 -0.0477905 -0.4584
                CHANNELS 3 Zrotation Xrotation Yrotation
                JOINT rPinky2
                {
                  OFFSET -1.82734 -0.647385 -0.700984
                  CHANNELS 3 Zrotation Xrotation Yrotation
                  End Site
                  {
                    OFFSET -1.69225 -0.51767 -0.607171
                  }
                }
              }
            }
          }
        }
      }
      JOINT lCollar
      {
        OFFSET 2.68224 19.2634 -4.8768
        CHANNELS 3 Zrotation Xrotation Yrotation
        JOINT lShldr
        {
          OFFSET 8.77824 -1.95073 1.46304
          CHANNELS 3 Zrotation Xrotation Yrotation
          JOINT lForeArm
          {
            OFFSET 28.1742 -1.7115 0.48768
            CHANNELS 3 Zrotation Xrotation Yrotation
            JOINT lHand
            {
              OFFSET 22.5879 0.773209 7.07136
              CHANNELS 3 Zrotation Xrotation Yrotation
              JOINT lThumb1
              {
                OFFSET 1.2192 -0.487915 3.41376
                CHANNELS 3 Zrotation Xrotation Yrotation
                JOINT lThumb2
                {
                  OFFSET 3.37035 -0.52449 3.41376
                  CHANNELS 3 Zrotation Xrotation Yrotation
                  End Site
                  {
                    OFFSET 1.78271 -1.18214 1.43049
                  }
                }
              }
              JOINT lIndex1
              {
                OFFSET 7.75947 0.938293 5.60832
                CHANNELS 3 Zrotation Xrotation Yrotation
                JOINT lIndex2
                {
                  OFFSET 2.54057 -0.884171 1.56538
                  CHANNELS 3 Zrotation Xrotation Yrotation
                  End Site
                  {
                    OFFSET 1.62519 -0.234802 1.16502
                  }
                }
              }
              JOINT lMid1
              {
                OFFSET 8.24714 1.18213 3.41376
                CHANNELS 3 Zrotation Xrotation Yrotation
                JOINT lMid2
                {
                  OFFSET 3.10165 -0.590103 1.0647
                  CHANNELS 3 Zrotation Xrotation Yrotation
                  End Site
                  {
                    OFFSET 2.48547 -0.328903 0.83742
                  }
                }
              }
              JOINT lRing1
              {
                OFFSET 8.82822 0.546677 1.51678
                CHANNELS 3 Zrotation Xrotation Yrotation
                JOINT lRing2
                {
                  OFFSET 2.60934 -0.819778 -0.0198488
                  CHANNELS 3 Zrotation Xrotation Yrotation
                  End Site
                  {
                    OFFSET 2.33842 -0.294052 0.168128
                  }
                }
              }
              JOINT lPinky1
              {
                OFFSET 8.27202 -0.0477905 -0.4584
                CHANNELS 3 Zrotation Xrotation Yrotation
                JOINT lPinky2
                {
                  OFFSET 1.82734 -0.647385 -0.700984
                  CHANNELS 3 Zrotation Xrotation Yrotation
                  End Site
                  {
                    OFFSET 1.69225 -0.51767 -0.607171
                  }
                }
              }
            }
          }
        }
      }
    }
  }
  JOINT rButtock
  {
    OFFSET -8.77824 4.35084 1.2192
    CHANNELS 3 Zrotation Xrotation Yrotation
    JOINT rThigh
    {
      OFFSET 0 -1.70687 -2.19456
      CHANNELS 3 Zrotation Xrotation Yrotation
      JOINT rShin
      {
        OFFSET 0 -36.8199 0.73152
        CHANNELS 3 Zrotation Xrotation Yrotation
        JOINT rFoot
        {
          OFFSET 0.73152 -45.1104 -5.12064
          CHANNELS 3 Zrotation Xrotation Yrotation
          End Site
          {
            OFFSET -1.1221 -3.69964 12.103
          }
        }
      }
    }
  }
  JOINT lButtock
  {
    OFFSET 8.77824 4.35084 1.2192
    CHANNELS 3 Zrotation Xrotation Yrotation
    JOINT lThigh
    {
      OFFSET 0 -1.70687 -2.19456
      CHANNELS 3 Zrotation Xrotation Yrotation
      JOINT lShin
      {
        OFFSET 0 -36.8199 0.73152
        CHANNELS 3 Zrotation Xrotation Yrotation
        JOINT lFoot
        {
          OFFSET -0.73152 -45.1104 -5.12064
          CHANNELS 3 Zrotation Xrotation Yrotation
          End Site
          {
            OFFSET 1.1221 -3.69964 12.103
          }
        }
      }
    }
  }
}
MOTION
Frames:	4
Frame Time:	0.00833333
74.8883 85.3166 23.5149 0.0 0.0 0.0 1.08606 -0.00408998 0.0298991 0.299445 -0.00345845 0.0518741 2.48032e-14 7.95139e-16 -2.23633e-16 7.47927e-14 9.54166e-15 -6.11884e-16 -0.0 0.0 0.0 -0.0 0.0 0.0 1.2572e-14 -2.95071e-17 0.0 2.64446e-13 -7.01958e-16 0.0 4.51042e-12 -1.36664e-12 -1.04958e-13 5.15731e-11 1.24375e-12 -2.8943e-13 1.21657e-10 -2.67383e-13 -8.6193e-13 2.10102e-10 -4.64361e-13 -1.50679e-12 1.21666e-10 -2.65576e-13 -8.65111e-13 7.73091 5.47488 0.417314 1.21659e-10 -2.67067e-13 -8.68291e-13 2.90554 0.965183 0.102902 1.21666e-10 -2.66968e-13 -8.73062e-13 10.2786 0.731801 0.0259123 1.21655e-10 -2.67564e-13 -8.71472e-13 2.22167 -0.733487 -0.20892 1.2575e-14 -2.6207e-17 -9.93923e-17 2.60104e-13 -7.20594e-16 -2.5842e-15 4.50953e-12 1.3241e-12 -5.40694e-14 5.15912e-11 -1.4714e-12 -3.49861e-13 1.2169e-10 -3.20748e-13 -8.77833e-13 2.10159e-10 -5.56597e-13 -1.50917e-12 1.21684e-10 -3.19646e-13 -8.71472e-13 -7.73091 5.47488 -0.417314 1.2169e-10 -3.20938e-13 -8.81014e-13 -2.90554 0.965183 -0.102902 1.21687e-10 -3.2064e-13 -8.69882e-13 -10.2786 0.731801 -0.0259123 1.21695e-10 -3.18851e-13 -8.65111e-13 -2.22167 -0.733487 0.20892 -2.03217e-16 0.0 -3.88251e-19 1.33872 -5.65666 -0.117793 0.000448517 4.68992 0.0313044 -0.524667 0.964925 0.0795529 2.03217e-16 0.0 3.88251e-19 0.313513 -1.92005 0.0118637 0.00934801 -2.07854 0.0772534 0.509822 3.99665 -0.139953
71.2015 83.8248 16.6706 -167.055 -79.7767 173.641 1.40174 1.0108 0.713515 1.27639 -0.438444 0.266963 -1.34143 0.578435 0.967394 3.34035 -3.90008 2.63412 -0.0 0.0 0.0 -0.0 0.0 0.0 -3.92066e-15 -2.2374e-14 2.10999e-14 19.0547 -2.44517 -3.46602 -6.83171 -3.89197 9.67696 0.0568607 -5.29405 -0.732609 1.49212e-10 -1.63626e-10 4.75592e-11 2.56329e-10 -2.83531e-10 8.32201e-11 1.49218e-10 -1.63622e-10 4.75552e-11 7.73091 5.47488 0.417314 1.49212e-10 -1.63616e-10 4.75565e-11 2.90554 0.965183 0.102902 1.49222e-10 -1.63623e-10 4.75524e-11 10.2786 0.731801 0.0259123 1.49211e-10 -1.63625e-10 4.7554e-11 2.22167 -0.733487 -0.20892 -3.90092e-15 -2.23742e-14 2.09745e-14 -22.1747 3.41552 -0.394298 4.11347 -1.84838 -6.4471 -0.0200519 3.14472 -0.439566 2.38196e-10 5.96481e-11 7.1404e-11 4.12478e-10 1.0245e-10 1.2245e-10 2.3819e-10 5.96495e-11 7.1411e-11 -7.73091 5.47488 -0.417314 2.38195e-10 5.96479e-11 7.14009e-11 -2.90554 0.965183 -0.102902 2.3819e-10 5.96484e-11 7.14116e-11 -10.2786 0.731801 -0.0259123 2.38198e-10 5.96496e-11 7.14147e-11 -2.22167 -0.733487 0.20892 -2.03217e-16 0.0 -3.88251e-19 -0.304459 -8.8524 -1.64985 0.00983557 10.0667 0.119214 -0.683985 -1.46511 -3.16655 2.03217e-16 0.0 3.88251e-19 2.95058 -4.47645 -0.764558 -0.00329271 4.73305 -0.04971 0.622567 -0.54916 2.22986
71.3248 83.8257 16.4413 -165.096 -80.0612 171.86 1.71335 2.07639 1.4391 2.31022 -0.895829 0.494944 -2.78539 1.18377 1.99259 7.27542 -7.98297 5.46529 -0.0 0.0 0.0 -0.0 0.0 0.0 -2.096e-14 1.32341e-14 3.62471e-14 38.8503 -5.01381 -7.1559 -12.652 -7.64501 20.0591 -0.0326392 -10.8796 -1.52704 1.59193e-10 -2.52988e-10 6.70244e-11 2.72696e-10 -4.38352e-10 1.17491e-10 1.59197e-10 -2.52981e-10 6.70195e-11 7.73091 5.47488 0.417314 1.59192e-10 -2.52967e-10 6.70256e-11 2.90554 0.965183 0.102902 1.59204e-10 -2.52982e-10 6.7022e-11 10.2786 0.731801 0.0259123 1.59193e-10 -2.52986e-10 6.70236e-11 2.22167 -0.733487 -0.20892 -2.09197e-14 1.323e-14 3.60949e-14 -45.5543 6.99509 -0.816469 8.01336 -3.72476 -13.2849 0.0115998 6.48384 -0.91083 3.96037e-10 9.12561e-11 1.46332e-10 6.86267e-10 1.56175e-10 2.50566e-10 3.96033e-10 9.12579e-11 1.46339e-10 -7.73091 5.47488 -0.417314 3.96038e-10 9.1256e-11 1.46329e-10 -2.90554 0.965183 -0.102902 3.96028e-10 9.12569e-11 1.46339e-10 -10.2786 0.731801 -0.0259123 3.96038e-10 9.12573e-11 1.46341e-10 -2.22167 -0.733487 0.20892 -2.03217e-16 0.0 -3.88251e-19 -2.23182 -12.22 -3.34231 0.00102224 15.748 0.216117 -1.14614 -3.96461 -6.60871 2.03217e-16 0.0 3.88251e-19 5.66392 -7.17948 -1.58409 0.0166545 11.9462 -0.187777 1.15173 -5.34661 4.75195
71.3624 83.7332 16.3259 -165.066 -80.2582 171.973 1.96037 3.03881 2.08334 3.24008 -1.30833 0.697299 -4.08288 1.73333 2.90336 11.1121 -11.6003 8.04953 -0.0 0.0 0.0 -0.0 0.0 0.0 -3.69061e-14 -6.7063e-14 6.32997e-14 56.276 -7.22783 -10.4727 -16.6858 -10.3451 29.4886 -0.249156 -15.8715 -2.27523 2.04322e-10 -4.90343e-10 1.44402e-10 3.48784e-10 -8.49663e-10 2.52674e-10 2.04324e-10 -4.90334e-10 1.44396e-10 7.73091 5.47488 0.417314 2.04319e-10 -4.90313e-10 1.44406e-10 2.90554 0.965183 0.102902 2.04334e-10 -4.90335e-10 1.44403e-10 10.2786 0.731801 0.0259123 2.04322e-10 -4.90339e-10 1.44405e-10 2.22167 -0.733487 -0.20892 -3.68528e-14 -6.70703e-14 6.31223e-14 -66.3811 10.2446 -1.19993 11.1144 -5.26486 -19.4164 0.0862747 9.43192 -1.33476 4.71206e-10 1.79586e-10 2.15968e-10 8.17117e-10 3.08463e-10 3.70369e-10 4.71202e-10 1.79588e-10 2.15976e-10 -7.73091 5.47488 -0.417314 4.71207e-10 1.79585e-10 2.15965e-10 -2.90554 0.965183 -0.102902 4.71195e-10 1.79587e-10 2.15975e-10 -10.2786 0.731801 -0.0259123 4.71205e-10 1.79586e-10 2.15974e-10 -2.22167 -0.733487 0.20892 -2.03217e-16 0.0 -3.88251e-19 -4.12037 -15.2031 -4.82541 -0.0241732 20.8201 0.309977 -1.82841 -6.24183 -9.71376 2.03217e-16 0.0 3.88251e-19 8.01426 -9.58258 -2.3431 0.0652705 18.356 -0.319272 1.98423 -9.57015 7.06736
